<?xml version="1.0" encoding="UTF-8" standalone="no"?>
<!-- Created with Inkscape (http://www.inkscape.org/) -->
<svg
   xmlns:dc="http://purl.org/dc/elements/1.1/"
   xmlns:cc="http://creativecommons.org/ns#"
   xmlns:rdf="http://www.w3.org/1999/02/22-rdf-syntax-ns#"
   xmlns:svg="http://www.w3.org/2000/svg"
   xmlns="http://www.w3.org/2000/svg"
   xmlns:sodipodi="http://sodipodi.sourceforge.net/DTD/sodipodi-0.dtd"
   xmlns:inkscape="http://www.inkscape.org/namespaces/inkscape"
   width="20"
   height="40"
   id="svg2"
   sodipodi:version="0.32"
   inkscape:version="0.46"
   version="1.0"
   sodipodi:docbase="C:\Documents and Settings\Administrator\Desktop"
   sodipodi:docname="Degree_sign.svg"
   inkscape:output_extension="org.inkscape.output.svg.inkscape">
  <defs
     id="defs4">
    <inkscape:perspective
       sodipodi:type="inkscape:persp3d"
       inkscape:vp_x="0 : 17.5 : 1"
       inkscape:vp_y="0 : 1000 : 0"
       inkscape:vp_z="85 : 17.5 : 1"
       inkscape:persp3d-origin="42.5 : 11.666667 : 1"
       id="perspective8" />
  </defs>
  <sodipodi:namedview
     id="base"
     pagecolor="#ffffff"
     bordercolor="#666666"
     borderopacity="1.0"
     inkscape:pageopacity="0.0"
     inkscape:pageshadow="2"
     inkscape:zoom="3.959798"
     inkscape:cx="88.937809"
     inkscape:cy="24.539886"
     inkscape:document-units="px"
     inkscape:current-layer="layer1"
     width="85px"
     height="35px"
     showborder="true"
     borderlayer="true"
     inkscape:window-width="1280"
     inkscape:window-height="964"
     inkscape:window-x="0"
     inkscape:window-y="26"
     showguides="true"
     inkscape:guide-bbox="true"
     showgrid="false" />
  <metadata
     id="metadata7">
    <rdf:RDF>
      <cc:Work
         rdf:about="">
        <dc:format>image/svg+xml</dc:format>
        <dc:type
           rdf:resource="http://purl.org/dc/dcmitype/StillImage" />
      </cc:Work>
    </rdf:RDF>
  </metadata>
  <g
     inkscape:label="Livello 1"
     inkscape:groupmode="layer"
     id="layer1">
    <path
       style="font-size:56px;font-style:normal;font-variant:normal;font-weight:normal;font-stretch:normal;fill:#000000;fill-opacity:1;stroke:none;stroke-width:1px;stroke-linecap:butt;stroke-linejoin:miter;stroke-opacity:1;font-family:Everson Mono;-inkscape-font-specification:Everson Mono"
       d="M 4.6169941,8.90975 C 4.6169919,7.5621164 5.0945305,6.4136801 6.0496113,5.4644375 C 7.0046848,4.5152445 8.1501915,4.0406356 9.4861348,4.0406094 C 10.845501,4.0406356 11.999797,4.5152445 12.949025,5.4644375 C 13.898233,6.4136801 14.372842,7.5621164 14.372854,8.90975 C 14.372842,10.257426 13.895303,11.408792 12.940236,12.363852 C 11.985149,13.318947 10.833783,13.796485 9.4861348,13.796469 C 8.1501915,13.796485 7.0046848,13.321876 6.0496113,12.372641 C 5.0945305,11.423441 4.6169919,10.269145 4.6169941,8.90975 L 4.6169941,8.90975 z M 6.5330098,8.90975 C 6.5330056,9.730083 6.8230444,10.430278 7.403127,11.010336 C 7.9831995,11.590433 8.6833941,11.880471 9.5037129,11.880453 C 10.312299,11.880471 11.006634,11.590433 11.586721,11.010336 C 12.166789,10.430278 12.456828,9.730083 12.456838,8.90975 C 12.456828,8.0894596 12.166789,7.389265 11.586721,6.809164 C 11.006634,6.2291099 10.312299,5.9390712 9.5037129,5.9390469 C 8.6833941,5.9390712 7.9831995,6.2291099 7.403127,6.809164 C 6.8230444,7.389265 6.5330056,8.0894596 6.5330098,8.90975 L 6.5330098,8.90975 z"
       id="text2380" />
  </g>
</svg>
