<?xml version="1.0" encoding="UTF-8" standalone="no"?>
<!-- Created with Inkscape (http://www.inkscape.org/) -->
<svg
   xmlns:svg="http://www.w3.org/2000/svg"
   xmlns="http://www.w3.org/2000/svg"
   version="1.0"
   width="7.6500001"
   height="29.130581"
   id="svg2">
  <defs
     id="defs4" />
  <g
     transform="translate(-873.31786,-606.36832)"
     id="layer1">
    <g
       id="g2438">
      <path
         d="M 874.38926,608.38307 L 874.38926,607.1028 C 874.91035,606.85573 875.39775,606.67155 875.85146,606.55026 C 876.30517,606.42898 876.74316,606.36833 877.16543,606.36832 C 877.67304,606.36833 878.11777,606.44695 878.49961,606.60416 C 878.88144,606.7614 879.17343,606.98713 879.37559,607.28136 C 879.57773,607.57561 879.6788,607.92712 879.67881,608.3359 C 879.6788,608.71774 879.60244,609.05353 879.44971,609.34327 C 879.29697,609.63303 879.08247,609.88571 878.8062,610.10133 C 878.52993,610.31696 878.17167,610.52809 877.73145,610.73473 L 877.73145,610.79537 C 878.00546,610.84479 878.26938,610.92902 878.52319,611.04806 C 878.777,611.16711 879.00273,611.32096 879.20039,611.50963 C 879.39804,611.69831 879.55639,611.92404 879.67544,612.18683 C 879.79448,612.44962 879.854,612.74948 879.854,613.08639 C 879.854,613.60748 879.74057,614.07018 879.51372,614.47448 C 879.28686,614.87877 878.93984,615.19772 878.47266,615.43131 C 878.00546,615.6649 877.4372,615.7817 876.76787,615.7817 C 876.38154,615.7817 875.96489,615.7379 875.51792,615.65031 C 875.07095,615.56271 874.66103,615.44703 874.28818,615.30328 L 874.28818,613.87477 L 875.09678,613.87477 C 875.254,614.34196 875.46177,614.68112 875.72007,614.89225 C 875.97837,615.10338 876.32988,615.20895 876.77461,615.20895 C 877.35859,615.20895 877.79995,615.04948 878.09868,614.73053 C 878.39741,614.41159 878.54677,613.93991 878.54678,613.31549 C 878.54677,612.65963 878.34912,612.15876 877.95381,611.81285 C 877.55849,611.46696 876.979,611.29401 876.21533,611.29401 L 875.60889,611.29401 L 875.60889,610.70104 C 876.21533,610.66511 876.72631,610.54831 877.14185,610.35065 C 877.55737,610.153 877.86621,609.89919 878.06836,609.58922 C 878.2705,609.27927 878.37158,608.93112 878.37158,608.54479 C 878.37158,608.04616 878.23906,607.66208 877.97402,607.39254 C 877.70898,607.12302 877.32265,606.98825 876.81504,606.98824 C 876.39277,606.98825 876.04912,607.1028 875.78408,607.3319 C 875.51904,607.56101 875.32363,607.9114 875.19785,608.38307 L 874.38926,608.38307 z"
         id="text2414"
         style="font-size:15px" />
      <path
         d="M 876.79482,635.16873 C 877.07334,635.09685 877.25976,635.01711 877.3541,634.92952 C 877.44843,634.84192 877.5102,634.71726 877.5394,634.55554 C 877.5686,634.39382 877.5832,634.14675 877.5832,633.81433 L 877.5832,632.70925 L 873.83672,632.70925 L 873.83672,632.20388 L 877.77861,626.25398 L 878.74219,626.25398 L 878.74219,632.05564 L 878.88369,632.05564 C 879.14423,632.05564 879.33066,632.03655 879.44297,631.99836 C 879.55527,631.96018 879.64848,631.8928 879.72261,631.79622 C 879.79672,631.69964 879.86523,631.54129 879.92813,631.32117 L 880.44023,631.32117 L 880.35938,632.70925 L 878.74219,632.70925 L 878.74219,633.81433 C 878.74218,634.11531 878.75229,634.33543 878.77251,634.47468 C 878.79272,634.61394 878.82641,634.724 878.87358,634.80486 C 878.92075,634.88572 878.99038,634.9531 879.08247,635.00701 C 879.17455,635.06091 879.32392,635.11482 879.53057,635.16873 L 879.53057,635.4989 L 876.79482,635.4989 L 876.79482,635.16873 z M 874.94854,632.05564 L 877.5832,632.05564 L 877.5832,630.37781 C 877.5832,629.95555 877.58994,629.48275 877.60342,628.9594 C 877.61689,628.43607 877.63261,628.04188 877.65059,627.77683 L 877.5832,627.77683 L 874.94854,631.9613 L 874.94854,632.05564 z"
         id="text2418"
         style="font-size:15px" />
      <path
         d="M 873.31786,622.7239 L 880.96786,622.7239 L 880.96786,621.8239 L 873.31786,621.8239 L 873.31786,622.7239 z"
         id="path2422"
         style="fill:#000000;fill-opacity:1;fill-rule:evenodd;stroke:none" />
    </g>
  </g>
</svg>
