<?xml version="1.0" encoding="iso-8859-1"?>
<!-- Generator: Adobe Illustrator 16.0.0, SVG Export Plug-In . SVG Version: 6.00 Build 0)  -->
<!DOCTYPE svg PUBLIC "-//W3C//DTD SVG 1.1//EN" "http://www.w3.org/Graphics/SVG/1.1/DTD/svg11.dtd">
<svg version="1.1" id="Capa_1" xmlns="http://www.w3.org/2000/svg" xmlns:xlink="http://www.w3.org/1999/xlink" x="0px" y="0px"
	 width="121.803px" height="121.804px" viewBox="0 0 121.803 121.804" style="enable-background:new 0 0 121.803 121.804;"
	 xml:space="preserve">
<g>
	<g>
		<path d="M4.872,114.495c0,4.037,3.272,7.309,7.309,7.309h97.443c4.037,0,7.309-3.271,7.309-7.309c0-4.036-3.271-7.308-7.309-7.308
			H12.181C8.144,107.188,4.872,110.459,4.872,114.495z"/>
		<path d="M12.829,84.619c1.22,2.701,3.88,4.3,6.665,4.3c1.006,0,2.029-0.21,3.006-0.649l88.917-40.196
			c2.688-1.216,4.38-3.924,4.295-6.872c-0.085-2.948-1.936-5.554-4.688-6.609L22.107,0.486c-3.759-1.444-7.995,0.436-9.44,4.208
			c-1.447,3.769,0.438,7.995,4.208,9.44l72.568,27.834L16.478,74.947C12.8,76.611,11.167,80.94,12.829,84.619z"/>
	</g>
</g>
<g>
</g>
<g>
</g>
<g>
</g>
<g>
</g>
<g>
</g>
<g>
</g>
<g>
</g>
<g>
</g>
<g>
</g>
<g>
</g>
<g>
</g>
<g>
</g>
<g>
</g>
<g>
</g>
<g>
</g>
</svg>
