<?xml version="1.0" encoding="iso-8859-1"?>
<!-- Generator: Adobe Illustrator 18.1.1, SVG Export Plug-In . SVG Version: 6.00 Build 0)  -->
<svg version="1.1" id="Capa_1" xmlns="http://www.w3.org/2000/svg" xmlns:xlink="http://www.w3.org/1999/xlink" x="0px" y="0px"
	 viewBox="0 0 18 18" style="enable-background:new 0 0 18 18;" xml:space="preserve">
<g>
	<path style="fill:#030104;" d="M15,7.247c0,0.414-0.332,0.75-0.75,0.75h-3.278v3.253c0,0.414-0.332,0.75-0.75,0.75H7.777
		c-0.412,0-0.75-0.336-0.75-0.75V7.997H3.75C3.338,7.997,3,7.661,3,7.247V4.776c0-0.415,0.338-0.75,0.75-0.75h3.276V0.75
		C7.026,0.335,7.364,0,7.776,0h2.445c0.418,0,0.75,0.335,0.75,0.75v3.276h3.278c0.418,0,0.75,0.335,0.75,0.75L15,7.247L15,7.247z
		 M15,17.25c0,0.414-0.332,0.75-0.75,0.75H3.75C3.338,18,3,17.664,3,17.25v-1.5C3,15.335,3.338,15,3.75,15h10.5
		c0.418,0,0.75,0.335,0.75,0.75V17.25z"/>
</g>
<g>
</g>
<g>
</g>
<g>
</g>
<g>
</g>
<g>
</g>
<g>
</g>
<g>
</g>
<g>
</g>
<g>
</g>
<g>
</g>
<g>
</g>
<g>
</g>
<g>
</g>
<g>
</g>
<g>
</g>
</svg>
